<?xml version="1.0" encoding="UTF-8"?>
<svg version="1.1" xmlns="http://www.w3.org/2000/svg" width="512" height="512">
<path d="M0 0 C0.85442932 -0.00199105 1.70885864 -0.0039821 2.58917975 -0.00603348 C3.52302882 -0.00312064 4.45687789 -0.0002078 5.41902542 0.00279331 C6.91260681 0.00151167 6.91260681 0.00151167 8.43636155 0.00020415 C11.78210245 -0.00144661 15.12779352 0.00406416 18.47352982 0.00952244 C20.86817804 0.00980442 23.26282635 0.00964636 25.65747452 0.00907993 C31.49098707 0.00882227 37.32448323 0.01316376 43.15799204 0.01951759 C49.94567161 0.02666372 56.73334884 0.02816255 63.52103165 0.02930576 C75.62580664 0.03149449 87.73057489 0.03814972 99.83534622 0.04760838 C111.59413494 0.05678713 123.35292183 0.0638657 135.11171341 0.06811619 C135.83650244 0.06837891 136.56129147 0.06864164 137.30804381 0.06891232 C140.94409057 0.07021736 144.58013735 0.07148106 148.21618414 0.07272422 C178.38172346 0.08309125 208.54725461 0.10077903 238.71278763 0.12304783 C238.71278763 2.43304783 238.71278763 4.74304783 238.71278763 7.12304783 C243.33278763 7.12304783 247.95278763 7.12304783 252.71278763 7.12304783 C252.71278763 4.81304783 252.71278763 2.50304783 252.71278763 0.12304783 C266.75184889 0.02936314 280.79086126 -0.04078261 294.83017159 -0.08420086 C301.34974792 -0.10504326 307.8691137 -0.13330033 314.38856888 -0.17870998 C320.68445902 -0.22228622 326.98014709 -0.24611445 333.27617645 -0.25646114 C335.67386046 -0.26383131 338.07153387 -0.27822342 340.46913147 -0.2998724 C343.83688572 -0.32906204 347.20381322 -0.33290155 350.57167435 -0.33105373 C351.55495209 -0.34543484 352.53822983 -0.35981594 353.55130386 -0.37463284 C364.73721 -0.30855897 373.42508161 4.06821982 381.40028763 11.74804783 C388.09355061 18.97677185 390.83298539 27.28106901 390.84700871 36.98763466 C390.84936094 37.68118769 390.85171317 38.37474071 390.85413668 39.0893105 C390.86081941 41.42463301 390.86036867 43.75989979 390.85995865 46.09523106 C390.86325773 47.78201267 390.86698339 49.46879349 390.87110013 51.15557331 C390.88112329 55.79994561 390.88483743 60.444305 390.88748944 65.08868659 C390.89139157 70.09433233 390.90096999 75.09996783 390.9097023 80.10560703 C390.92946958 92.19901675 390.93953339 104.29242731 390.94843009 116.38584915 C390.95281267 122.08018527 390.95817957 127.77452047 390.96341896 133.46885586 C390.98043172 152.39714363 390.99492594 171.32543081 391.0021677 190.25372505 C391.00407761 195.16630205 391.00599794 200.07887905 391.00795364 204.99145603 C391.00843738 206.21246067 391.00892112 207.4334653 391.00941952 208.69147008 C391.01772 228.47138448 391.04305701 248.2512384 391.07553432 268.03112639 C391.10860275 288.33650018 391.12661628 308.64184324 391.12981194 328.94724411 C391.13197727 340.34885084 391.14072923 351.75036939 391.16627312 363.15194988 C391.18797714 372.86206257 391.19603198 382.57206567 391.18630634 392.28219987 C391.18176077 397.23545286 391.18366293 402.18847971 391.20306778 407.1417017 C391.22069375 411.68010052 391.21970627 416.21810814 391.20417049 420.75651108 C391.20179356 422.39453539 391.20612238 424.03258675 391.21799914 425.67056973 C391.31249879 439.56926249 389.1069375 450.61039231 379.05263138 460.80664158 C365.71839898 472.98665796 348.44390446 471.41010232 331.51259232 471.35009861 C329.27439758 471.34953374 327.03620248 471.34985252 324.79800797 471.35098362 C318.75135791 471.35155519 312.70478792 471.33983258 306.65815639 471.3258357 C300.32808404 471.31329569 293.99800965 471.31215527 287.66792679 471.30978489 C277.05281916 471.30428381 266.437743 471.29180886 255.82265091 471.27392673 C244.89459249 471.25553666 233.96654202 471.24139551 223.03847122 471.23291111 C222.02612825 471.23212294 222.02612825 471.23212294 220.99333391 471.23131885 C217.60719739 471.22870856 214.22106083 471.22618119 210.83492422 471.22369504 C182.79419104 471.20300005 154.7534927 471.16725267 126.71278763 471.12304783 C126.71278763 484.65304783 126.71278763 498.18304783 126.71278763 512.12304783 C121.11556575 511.42339509 116.18266979 510.57111219 110.84560013 509.02148533 C109.36793001 508.60932916 107.89005893 508.19789293 106.41200638 507.78711033 C104.12369849 507.14507063 101.83728947 506.49790382 99.55409622 505.83789158 C87.2908806 502.20275381 87.2908806 502.20275381 74.71278763 503.12304783 C73.4319429 503.43435642 72.15109818 503.74566502 70.83143997 504.0664072 C66.31474155 505.20559571 61.82625854 506.44053939 57.33778763 507.68554783 C55.02188277 508.32440983 52.70540788 508.96085412 50.38719559 509.59129429 C48.95448956 509.98121576 47.52310945 510.37605249 46.09331131 510.77650547 C42.79408002 511.67730014 40.16973897 512.12304783 36.71278763 512.12304783 C36.71278763 498.59304783 36.71278763 485.06304783 36.71278763 471.12304783 C26.39285275 471.20162102 26.39285275 471.20162102 16.07313919 471.30322361 C1.34194308 471.35939422 -11.62407862 470.29088599 -23.09971237 459.99804783 C-28.91476145 453.73460942 -33.41507614 444.76637259 -33.4102602 436.11694813 C-33.41225125 435.32521993 -33.4142423 434.53349173 -33.41629368 433.71777177 C-33.41338084 432.85395977 -33.410468 431.99014777 -33.40746689 431.10015965 C-33.40832131 430.17794266 -33.40917574 429.25572568 -33.41005605 428.30556273 C-33.41170606 425.208572 -33.40619727 422.11163516 -33.40073776 419.01464939 C-33.40045576 416.79733882 -33.40061388 414.58002815 -33.40118027 412.36271763 C-33.40146774 406.33627904 -33.39557909 400.30986026 -33.38860631 394.28342628 C-33.38236444 387.98800411 -33.38176831 381.69258151 -33.3805809 375.39715672 C-33.37782372 364.82840735 -33.37157313 354.2596645 -33.36265182 343.69091892 C-33.35347249 332.80517711 -33.3463942 321.91943727 -33.34214401 311.03369236 C-33.34188129 310.36266925 -33.34161857 309.69164614 -33.34134788 309.00028899 C-33.34004284 305.63395551 -33.33877913 302.26762201 -33.33753598 298.90128851 C-33.32707717 270.97520321 -33.30948247 243.04912603 -33.28721237 215.12304783 C-30.97721237 215.12304783 -28.66721237 215.12304783 -26.28721237 215.12304783 C-26.28721237 210.50304783 -26.28721237 205.88304783 -26.28721237 201.12304783 C-28.59721237 201.12304783 -30.90721237 201.12304783 -33.28721237 201.12304783 C-33.38077528 179.01743613 -33.45125014 156.91185723 -33.49446106 134.80608749 C-33.51506055 124.54131216 -33.5431311 114.27666006 -33.58897018 104.01196384 C-33.62891804 95.0621939 -33.65466417 86.11251324 -33.66356635 77.16265661 C-33.66876765 72.42651901 -33.6809379 67.69063678 -33.7101326 62.95458126 C-33.73742745 58.49025279 -33.74562913 54.02628315 -33.7396431 49.56187916 C-33.74073707 47.92973406 -33.74860683 46.29757606 -33.76403427 44.6655035 C-33.87967431 31.7927139 -32.30057995 20.95777744 -23.28721237 11.12304783 C-16.9179907 4.66390774 -9.25676862 -0.00477153 0 0 Z " fill="#2E93F5" transform="translate(77.28721237182617,-0.1230478286743164)"/>
<path d="M0 0 C0.85442932 -0.00199105 1.70885864 -0.0039821 2.58917975 -0.00603348 C3.52302882 -0.00312064 4.45687789 -0.0002078 5.41902542 0.00279331 C6.91260681 0.00151167 6.91260681 0.00151167 8.43636155 0.00020415 C11.78210245 -0.00144661 15.12779352 0.00406416 18.47352982 0.00952244 C20.86817804 0.00980442 23.26282635 0.00964636 25.65747452 0.00907993 C31.49098707 0.00882227 37.32448323 0.01316376 43.15799204 0.01951759 C49.94567161 0.02666372 56.73334884 0.02816255 63.52103165 0.02930576 C75.62580664 0.03149449 87.73057489 0.03814972 99.83534622 0.04760838 C111.59413494 0.05678713 123.35292183 0.0638657 135.11171341 0.06811619 C135.83650244 0.06837891 136.56129147 0.06864164 137.30804381 0.06891232 C140.94409057 0.07021736 144.58013735 0.07148106 148.21618414 0.07272422 C178.38172346 0.08309125 208.54725461 0.10077903 238.71278763 0.12304783 C238.71278763 5.07304783 238.71278763 10.02304783 238.71278763 15.12304783 C172.05278763 15.12304783 105.39278763 15.12304783 36.71278763 15.12304783 C36.71278763 131.94304783 36.71278763 248.76304783 36.71278763 369.12304783 C94.79278763 369.12304783 152.87278763 369.12304783 212.71278763 369.12304783 C212.71278763 373.74304783 212.71278763 378.36304783 212.71278763 383.12304783 C211.62241699 383.12451439 210.53204636 383.12598095 209.40863419 383.12749195 C182.87635607 383.16408847 156.34420416 383.22354015 129.81203079 383.30695057 C116.9812588 383.34675825 104.1505483 383.37914201 91.31972122 383.39404392 C80.13624872 383.40705141 68.95291141 383.43399316 57.76951504 383.47766089 C51.84808998 383.50029581 45.92683181 383.51595728 40.00535965 383.51493168 C34.43047038 383.51418628 28.8559503 383.53208917 23.28115654 383.56421566 C21.23658621 383.57272556 19.19197453 383.57445721 17.14739418 383.56885052 C14.35154162 383.56220564 11.55686198 383.58014308 8.76112747 383.6040659 C7.95565822 383.59630548 7.15018896 383.58854506 6.32031155 383.58054948 C-0.64710011 383.68578889 -5.67189365 385.9832416 -11.03721237 390.37304783 C-17.80990877 398.65078787 -17.94531836 406.29412377 -17.86362839 416.55810642 C-17.8497805 418.98610239 -17.88386893 421.41022093 -17.921978 423.83789158 C-17.9655908 432.41920671 -17.80021872 440.03697999 -12.28721237 447.12304783 C-6.02744407 452.91792081 -1.15678382 454.26602678 7.31825638 454.43945408 C8.06224686 454.4581052 8.80623734 454.47675632 9.57277298 454.49597263 C12.3484919 454.5642037 15.12440375 454.62439494 17.90028763 454.68554783 C24.10841263 454.82992283 30.31653763 454.97429783 36.71278763 455.12304783 C36.71278763 438.95304783 36.71278763 422.78304783 36.71278763 406.12304783 C123.17278763 406.12304783 209.63278763 406.12304783 298.71278763 406.12304783 C298.71278763 411.07304783 298.71278763 416.02304783 298.71278763 421.12304783 C241.95278763 421.12304783 185.19278763 421.12304783 126.71278763 421.12304783 C126.71278763 432.34304783 126.71278763 443.56304783 126.71278763 455.12304783 C156.13210869 455.08592035 185.55132815 455.03009333 214.9705517 454.94512688 C218.4451768 454.93510964 221.91980236 454.92526547 225.39442825 454.9155283 C226.0861524 454.91358692 226.77787654 454.91164555 227.49056202 454.90964535 C238.68517654 454.87863943 249.87977056 454.86164864 261.07441992 454.84985361 C272.56448746 454.83743472 284.05443178 454.80962003 295.54443407 454.76843476 C301.99682374 454.74579342 308.44906015 454.73013877 314.90149307 454.73116398 C320.97540145 454.73190899 327.04897065 454.71402139 333.12279129 454.68188 C335.35119454 454.6733653 337.57963577 454.67164168 339.80804825 454.67724514 C342.85347313 454.68388264 345.89781813 454.66596941 348.94313431 454.64202976 C349.82253158 454.64979018 350.70192885 454.6575506 351.60797453 454.66554618 C358.99456936 454.56293588 364.27115185 452.56468361 369.52528763 447.31054783 C375.04923676 439.26136481 375.12243787 432.9322343 375.00575638 423.31445408 C375.00015264 421.97924879 374.99588622 420.64403728 374.99289322 419.30882359 C374.98150542 415.81526386 374.95209187 412.32208556 374.91878128 408.82867527 C374.88794845 405.25562796 374.87435982 401.6825183 374.859272 398.10937595 C374.82721525 391.11377777 374.77609362 384.11843118 374.71278763 377.12304783 C374.21649857 377.3885947 373.7202095 377.65414158 373.20888138 377.92773533 C372.18987747 378.45754002 372.18987747 378.45754002 371.15028763 378.99804783 C370.48899857 379.3460947 369.8277095 379.69414158 369.14638138 380.05273533 C361.66013169 383.34524322 354.99871286 383.39867966 346.89271927 383.35009861 C345.61397934 383.35039066 344.33523941 383.35068272 343.01774979 383.35098362 C339.52854921 383.35155514 336.03948741 383.33983349 332.55031896 383.3258357 C328.89748678 383.31329478 325.24465108 383.3121552 321.59180069 383.30978489 C314.68234806 383.30357997 307.77295906 383.28718259 300.86353439 383.26708591 C292.99412326 383.24469608 285.12470902 383.23372574 277.25527394 383.22369504 C261.07440692 383.20281544 244.89360792 383.16725375 228.71278763 383.12304783 C228.71278763 378.17304783 228.71278763 373.22304783 228.71278763 368.12304783 C230.32367264 368.1194022 231.93455765 368.11575657 233.59425735 368.11200047 C248.77895766 368.07505146 263.96343431 368.01751595 279.14797592 367.93914509 C286.95441394 367.89938058 294.76075152 367.86697501 302.56727982 367.85205173 C309.37356698 367.83902172 316.17963293 367.81202287 322.9857955 367.76843476 C326.58775455 367.74584997 330.18944107 367.73013533 333.7914772 367.73116398 C337.81829325 367.73205167 341.84430809 367.70174548 345.87099075 367.66894627 C347.65124146 367.67649181 347.65124146 367.67649181 349.46745682 367.6841898 C357.23731968 367.58634676 362.60312096 366.52661347 368.73622513 361.44726658 C369.18224075 360.90714939 369.62825638 360.3670322 370.08778763 359.81054783 C370.549272 359.27816502 371.01075638 358.7457822 371.48622513 358.19726658 C375.49954891 351.41040375 375.0022823 343.98886305 374.98694229 336.35197544 C374.99217897 335.06264758 374.99741565 333.77331972 375.00281101 332.44492131 C375.01695147 328.87712452 375.01865506 325.309415 375.01821411 321.7415942 C375.01986578 317.88939268 375.0329387 314.03722676 375.04440689 310.18504429 C375.06722729 301.76770093 375.07517405 293.35038283 375.08023334 284.93301272 C375.08349326 279.67493074 375.09001746 274.41685605 375.09723473 269.15877819 C375.1167954 254.59332071 375.13320319 240.02786999 375.13611126 225.46239853 C375.13639261 224.065143 375.13639261 224.065143 375.13667965 222.63966008 C375.1370459 220.75138748 375.1374096 218.86311488 375.13777076 216.97484227 C375.13795358 216.03753673 375.13813639 215.10023118 375.13832474 214.13452244 C375.13850529 213.19606979 375.13868584 212.25761713 375.13887186 211.29072652 C375.14241404 196.0821269 375.16944157 180.87366883 375.20682263 165.6651183 C375.24491642 150.04128937 375.26426881 134.41753066 375.26457077 118.79365426 C375.26515504 110.02513308 375.27362733 101.25678084 375.30256844 92.48830318 C375.32709646 85.02274013 375.33435554 77.55740767 375.31932091 70.0918152 C375.31215822 66.28488299 375.31298128 62.478406 375.33573151 58.671525 C375.36019045 54.53904018 375.34566839 50.40758833 375.32751846 46.27507114 C375.34731841 44.48161653 375.34731841 44.48161653 375.36751837 42.65193051 C375.28601924 34.52035501 373.75089889 27.73546062 368.27012056 21.47520417 C362.10886994 15.90202344 355.32417648 15.8220091 347.48476028 15.80420017 C346.46951279 15.79415455 345.45426529 15.78410892 344.40825272 15.77375889 C341.06445742 15.74295629 337.7207421 15.72589968 334.37685013 15.70898533 C332.05371285 15.69027136 329.73058236 15.67069777 327.40745926 15.65030003 C321.30179722 15.59899721 315.19611315 15.55936143 309.0903511 15.52215672 C302.85636833 15.48210559 296.62247707 15.43101827 290.38856888 15.38086033 C278.16337276 15.28412287 265.93812495 15.19971097 253.71278763 15.12304783 C253.38278763 10.17304783 253.05278763 5.22304783 252.71278763 0.12304783 C266.75185849 0.03021952 280.7908559 -0.04078259 294.83017159 -0.08420086 C301.34974792 -0.10504326 307.8691137 -0.13330033 314.38856888 -0.17870998 C320.68445902 -0.22228622 326.98014709 -0.24611445 333.27617645 -0.25646114 C335.67386046 -0.26383131 338.07153387 -0.27822342 340.46913147 -0.2998724 C343.83688572 -0.32906204 347.20381322 -0.33290155 350.57167435 -0.33105373 C351.55495209 -0.34543484 352.53822983 -0.35981594 353.55130386 -0.37463284 C364.73721 -0.30855897 373.42508161 4.06821982 381.40028763 11.74804783 C388.09355061 18.97677185 390.83298539 27.28106901 390.84700871 36.98763466 C390.84936094 37.68118769 390.85171317 38.37474071 390.85413668 39.0893105 C390.86081941 41.42463301 390.86036867 43.75989979 390.85995865 46.09523106 C390.86325773 47.78201267 390.86698339 49.46879349 390.87110013 51.15557331 C390.88112329 55.79994561 390.88483743 60.444305 390.88748944 65.08868659 C390.89139157 70.09433233 390.90096999 75.09996783 390.9097023 80.10560703 C390.92946958 92.19901675 390.93953339 104.29242731 390.94843009 116.38584915 C390.95281267 122.08018527 390.95817957 127.77452047 390.96341896 133.46885586 C390.98043172 152.39714363 390.99492594 171.32543081 391.0021677 190.25372505 C391.00407761 195.16630205 391.00599794 200.07887905 391.00795364 204.99145603 C391.00843738 206.21246067 391.00892112 207.4334653 391.00941952 208.69147008 C391.01772 228.47138448 391.04305701 248.2512384 391.07553432 268.03112639 C391.10860275 288.33650018 391.12661628 308.64184324 391.12981194 328.94724411 C391.13197727 340.34885084 391.14072923 351.75036939 391.16627312 363.15194988 C391.18797714 372.86206257 391.19603198 382.57206567 391.18630634 392.28219987 C391.18176077 397.23545286 391.18366293 402.18847971 391.20306778 407.1417017 C391.22069375 411.68010052 391.21970627 416.21810814 391.20417049 420.75651108 C391.20179356 422.39453539 391.20612238 424.03258675 391.21799914 425.67056973 C391.31249879 439.56926249 389.1069375 450.61039231 379.05263138 460.80664158 C365.71839898 472.98665796 348.44390446 471.41010232 331.51259232 471.35009861 C329.27439758 471.34953374 327.03620248 471.34985252 324.79800797 471.35098362 C318.75135791 471.35155519 312.70478792 471.33983258 306.65815639 471.3258357 C300.32808404 471.31329569 293.99800965 471.31215527 287.66792679 471.30978489 C277.05281916 471.30428381 266.437743 471.29180886 255.82265091 471.27392673 C244.89459249 471.25553666 233.96654202 471.24139551 223.03847122 471.23291111 C222.02612825 471.23212294 222.02612825 471.23212294 220.99333391 471.23131885 C217.60719739 471.22870856 214.22106083 471.22618119 210.83492422 471.22369504 C182.79419104 471.20300005 154.7534927 471.16725267 126.71278763 471.12304783 C126.71278763 484.65304783 126.71278763 498.18304783 126.71278763 512.12304783 C121.11556575 511.42339509 116.18266979 510.57111219 110.84560013 509.02148533 C109.36793001 508.60932916 107.89005893 508.19789293 106.41200638 507.78711033 C104.12369849 507.14507063 101.83728947 506.49790382 99.55409622 505.83789158 C87.2908806 502.20275381 87.2908806 502.20275381 74.71278763 503.12304783 C73.4319429 503.43435642 72.15109818 503.74566502 70.83143997 504.0664072 C66.31474155 505.20559571 61.82625854 506.44053939 57.33778763 507.68554783 C55.02188277 508.32440983 52.70540788 508.96085412 50.38719559 509.59129429 C48.95448956 509.98121576 47.52310945 510.37605249 46.09331131 510.77650547 C42.79408002 511.67730014 40.16973897 512.12304783 36.71278763 512.12304783 C36.71278763 498.59304783 36.71278763 485.06304783 36.71278763 471.12304783 C26.39285275 471.20162102 26.39285275 471.20162102 16.07313919 471.30322361 C1.34194308 471.35939422 -11.62407862 470.29088599 -23.09971237 459.99804783 C-28.91476145 453.73460942 -33.41507614 444.76637259 -33.4102602 436.11694813 C-33.41225125 435.32521993 -33.4142423 434.53349173 -33.41629368 433.71777177 C-33.41338084 432.85395977 -33.410468 431.99014777 -33.40746689 431.10015965 C-33.40832131 430.17794266 -33.40917574 429.25572568 -33.41005605 428.30556273 C-33.41170606 425.208572 -33.40619727 422.11163516 -33.40073776 419.01464939 C-33.40045576 416.79733882 -33.40061388 414.58002815 -33.40118027 412.36271763 C-33.40146774 406.33627904 -33.39557909 400.30986026 -33.38860631 394.28342628 C-33.38236444 387.98800411 -33.38176831 381.69258151 -33.3805809 375.39715672 C-33.37782372 364.82840735 -33.37157313 354.2596645 -33.36265182 343.69091892 C-33.35347249 332.80517711 -33.3463942 321.91943727 -33.34214401 311.03369236 C-33.34188129 310.36266925 -33.34161857 309.69164614 -33.34134788 309.00028899 C-33.34004284 305.63395551 -33.33877913 302.26762201 -33.33753598 298.90128851 C-33.32707717 270.97520321 -33.30948247 243.04912603 -33.28721237 215.12304783 C-30.97721237 215.12304783 -28.66721237 215.12304783 -26.28721237 215.12304783 C-26.28721237 210.50304783 -26.28721237 205.88304783 -26.28721237 201.12304783 C-28.59721237 201.12304783 -30.90721237 201.12304783 -33.28721237 201.12304783 C-33.38077528 179.01743613 -33.45125014 156.91185723 -33.49446106 134.80608749 C-33.51506055 124.54131216 -33.5431311 114.27666006 -33.58897018 104.01196384 C-33.62891804 95.0621939 -33.65466417 86.11251324 -33.66356635 77.16265661 C-33.66876765 72.42651901 -33.6809379 67.69063678 -33.7101326 62.95458126 C-33.73742745 58.49025279 -33.74562913 54.02628315 -33.7396431 49.56187916 C-33.74073707 47.92973406 -33.74860683 46.29757606 -33.76403427 44.6655035 C-33.87967431 31.7927139 -32.30057995 20.95777744 -23.28721237 11.12304783 C-16.9179907 4.66390774 -9.25676862 -0.00477153 0 0 Z " fill="#010101" transform="translate(77.28721237182617,-0.1230478286743164)"/>
<path d="M0 0 C91.74 0 183.48 0 278 0 C278 45.54 278 91.08 278 138 C186.26 138 94.52 138 0 138 C0 92.46 0 46.92 0 0 Z " fill="#FBFBFB" transform="translate(144,118)"/>
<path d="M0 0 C5.28 0 10.56 0 16 0 C16 2.31 16 4.62 16 7 C32.8731759 6.96273698 49.74610008 6.90273543 66.61909103 6.81609726 C74.45456 6.77638715 82.28992971 6.74395409 90.12548828 6.72900391 C96.95964671 6.71594553 103.79358598 6.68887504 110.62762094 6.64538693 C114.24200275 6.62286546 117.85611522 6.60708366 121.47057343 6.60811615 C125.51812344 6.6090086 129.56488648 6.57860018 133.61230469 6.54589844 C135.38500984 6.55344398 135.38500984 6.55344398 137.19352722 6.56114197 C146.5610421 6.44464726 154.68842895 4.34828292 163 0 C163.1164248 7.78055619 163.20498161 15.56090406 163.25906086 23.3421154 C163.28503134 26.95625701 163.32019409 30.56979782 163.37719727 34.18359375 C163.431973 37.67849662 163.46151462 41.17282578 163.47438622 44.66812515 C163.48796899 46.63448279 163.5269284 48.60061318 163.56648254 50.56661987 C163.56917817 59.27837177 162.31031771 66.40046709 156.1855011 72.93624878 C150.12593655 78.55810893 144.59699639 79.29302325 136.59111023 79.24050903 C135.63945396 79.24221788 134.68779769 79.24392673 133.70730335 79.24568737 C130.51662512 79.24898314 127.32615692 79.237977 124.13549805 79.22705078 C121.84907537 79.22648669 119.56265233 79.22680319 117.27622986 79.22793579 C111.06594855 79.22851037 104.85574426 79.21673894 98.64548087 79.20278788 C92.15654626 79.19029812 85.66760994 79.1891114 79.17866516 79.18673706 C68.28633244 79.18122413 57.39402821 79.16872575 46.50170898 79.15087891 C35.28328594 79.13251688 24.06487058 79.11836195 12.84643555 79.10986328 C12.15476619 79.10933783 11.46309683 79.10881239 10.7504678 79.10827102 C7.28051649 79.10566092 3.81056512 79.10313351 0.34061372 79.10064721 C-28.43961011 79.0799186 -57.21980303 79.04414547 -86 79 C-86 67.78 -86 56.56 -86 45 C-29.24 45 27.52 45 86 45 C86 40.05 86 35.1 86 30 C-0.46 30 -86.92 30 -176 30 C-176 46.17 -176 62.34 -176 79 C-182.105 79.0825 -188.21 79.165 -194.5 79.25 C-197.36655273 79.30462402 -197.36655273 79.30462402 -200.29101562 79.36035156 C-201.82941571 79.37204922 -203.3678283 79.38223849 -204.90625 79.390625 C-205.68581055 79.41108887 -206.46537109 79.43155273 -207.26855469 79.45263672 C-213.83224529 79.45675447 -218.94593739 77.57405277 -223.98828125 73.32421875 C-224.42527344 72.78410156 -224.86226563 72.24398437 -225.3125 71.6875 C-225.98732422 70.88892578 -225.98732422 70.88892578 -226.67578125 70.07421875 C-230.29829195 64.40002057 -231.46687825 59.48348129 -231.46875 52.79296875 C-231.47636353 52.0275325 -231.48397705 51.26209625 -231.49182129 50.47346497 C-231.50256748 48.86246988 -231.50549783 47.25140544 -231.50097656 45.64038086 C-231.50000645 43.20370417 -231.54163809 40.77020582 -231.5859375 38.33398438 C-231.65298021 29.71866514 -231.5294184 22.12437214 -226 15 C-219.32936233 8.74508486 -213.44787303 6.69412653 -204.31242371 6.75949097 C-203.00132054 6.75692769 -203.00132054 6.75692769 -201.66373044 6.75431263 C-198.73561639 6.75101904 -195.80773161 6.76201936 -192.87963867 6.77294922 C-190.78040574 6.77351336 -188.6811724 6.77319672 -186.5819397 6.77206421 C-180.88196984 6.77148981 -175.18208395 6.78325827 -169.48213363 6.79721212 C-163.52571649 6.80970494 -157.56929748 6.81088884 -151.61286926 6.81326294 C-140.3330316 6.81948196 -129.05323265 6.83589852 -117.77341205 6.85596192 C-104.93194969 6.87830776 -92.09048549 6.88931104 -79.24900854 6.89935279 C-52.83265088 6.92026436 -26.41632761 6.95544857 0 7 C0 4.69 0 2.38 0 0 Z " fill="#FCFCFC" transform="translate(290,376)"/>
<path d="M0 0 C0 116.49 0 232.98 0 353 C-6.93 353.33 -13.86 353.66 -21 354 C-28.7264237 355.60648414 -32.72721217 357.36360609 -40 361 C-40 307.87 -40 254.74 -40 200 C-42.64 200 -45.28 200 -48 200 C-48 195.05 -48 190.1 -48 185 C-45.36 185 -42.72 185 -40 185 C-40.00691345 183.72281695 -40.00691345 183.72281695 -40.01396656 182.41983223 C-40.12450635 161.67855985 -40.20718606 140.93733841 -40.25906086 120.19583321 C-40.28481552 110.16527842 -40.31991366 100.13492056 -40.37719727 90.10449219 C-40.42711611 81.35945623 -40.45931091 72.61456294 -40.47044247 63.86938846 C-40.47694689 59.24108583 -40.49217676 54.61319123 -40.52865028 49.98501968 C-40.56274397 45.62323471 -40.57302617 41.26202345 -40.56553841 36.90011787 C-40.56690701 35.30462965 -40.57675983 33.70912102 -40.59602737 32.11374855 C-40.70937532 22.2389206 -40.27691217 13.60757442 -33.18581104 6.0721302 C-23.39221581 -3.06104456 -14.59613121 0 0 0 Z " fill="#FC5376" transform="translate(99,15)"/>
<path d="M0 0 C101.64 0 203.28 0 308 0 C308 55.44 308 110.88 308 168 C206.36 168 104.72 168 0 168 C0 112.56 0 57.12 0 0 Z M15 15 C15 60.54 15 106.08 15 153 C106.74 153 198.48 153 293 153 C293 107.46 293 61.92 293 15 C201.26 15 109.52 15 15 15 Z " fill="#010203" transform="translate(129,103)"/>
<path d="M0 0 C7.02566445 0.57352363 11.8075801 2.75775237 16.75 7.8125 C22.17416007 15.49672677 22.43228037 21.55211041 22.38095093 30.78453064 C22.3856309 32.07526963 22.39031087 33.36600863 22.39513266 34.69586092 C22.40763222 38.26757798 22.40147713 41.83905392 22.39217401 45.41077173 C22.38537947 49.26702324 22.39586679 53.12323362 22.40411377 56.97947693 C22.41744936 64.52980689 22.41457403 72.08004735 22.40587585 79.6303808 C22.39909853 85.76764356 22.39818279 91.90488125 22.4014473 98.04214668 C22.401907 98.91590262 22.40236669 99.78965856 22.40284032 100.68989195 C22.40379951 102.46496737 22.40477215 104.24004278 22.4057581 106.01511819 C22.41431161 122.65802281 22.40447872 139.30087786 22.388357 155.94377435 C22.3749562 170.21962115 22.37728002 184.49539476 22.39111328 198.77124023 C22.40717383 215.3533626 22.41348517 231.9354415 22.40427649 248.51757056 C22.40332086 250.28639288 22.40237774 252.05521521 22.4014473 253.82403755 C22.40098447 254.69430579 22.40052164 255.56457402 22.40004479 256.46121402 C22.39745615 262.58955489 22.40182324 268.71786816 22.40888596 274.84620476 C22.41730652 282.31691675 22.41500921 289.7875342 22.39904372 297.25823539 C22.39116812 301.06885444 22.38805718 304.87931595 22.39799118 308.68993378 C22.40860247 312.82292113 22.39591821 316.95551191 22.38095093 321.08848572 C22.38764309 322.28994781 22.39433526 323.4914099 22.40123022 324.72927994 C22.3419776 333.15424052 21.4213041 339.98379794 15.5 346.4375 C14.9121875 347.09621094 14.324375 347.75492187 13.71875 348.43359375 C12 350 12 350 9 351 C9.00016235 350.29359084 9.0003247 349.58718168 9.00049198 348.85936618 C9.00935817 306.97270422 8.98700039 265.08615994 8.92420971 223.19954114 C8.91669385 218.16785847 8.90943833 213.13617546 8.90234375 208.10449219 C8.90021862 206.60194393 8.90021862 206.60194393 8.89805056 205.06904116 C8.87574455 188.85908206 8.87451867 172.64918663 8.88111137 156.43921646 C8.88740803 139.80079791 8.87098572 123.16251309 8.83356392 106.52413487 C8.8111941 96.2609681 8.80645139 85.99810623 8.82440336 75.73492947 C8.8350219 68.69284142 8.82353151 61.65100336 8.79483847 54.60896668 C8.77894175 50.54864592 8.77261771 46.48892023 8.79260826 42.42860413 C8.81072728 38.70451895 8.80082202 34.98155505 8.76946117 31.25756755 C8.75991316 29.28608815 8.77961145 27.31453242 8.80066097 25.34314227 C8.67085329 15.29555887 5.51712922 8.27569383 0 0 Z " fill="#006CEC" transform="translate(431,15)"/>
<path d="M0 0 C5.28 0 10.56 0 16 0 C19.3705101 3.38071346 20.58759427 5.00064421 22.4375 9.125 C23.40696485 10.98796356 24.37832596 12.84994154 25.3515625 14.7109375 C25.80305664 15.62456055 26.25455078 16.53818359 26.71972656 17.47949219 C28.37860855 20.74537656 30.27855203 23.70285862 32.3125 26.75 C36.5088308 33.20589353 40.60606145 39.72088868 44.6875 46.25 C45.31760986 47.25643555 45.94771973 48.26287109 46.59692383 49.29980469 C47.20818115 50.27852539 47.81943848 51.25724609 48.44921875 52.265625 C48.98893311 53.12961914 49.52864746 53.99361328 50.0847168 54.88378906 C52.75860257 59.23426428 55.37272957 63.62121595 58 68 C58.33 45.56 58.66 23.12 59 0 C63.95 0 68.9 0 74 0 C74 32.01 74 64.02 74 97 C58 97 58 97 53.90234375 93.03125 C52.85458842 91.22063611 51.86892866 89.3731136 50.9375 87.5 C49.79292376 85.46934301 48.64704463 83.43941996 47.5 81.41015625 C46.92894531 80.35199707 46.35789062 79.29383789 45.76953125 78.20361328 C42.88150429 72.97504129 39.64480815 67.9740508 36.4375 62.9375 C29.57720033 51.98823361 22.80086117 40.98600651 16 30 C15.67 52.44 15.34 74.88 15 98 C10.05 98 5.1 98 0 98 C0 65.66 0 33.32 0 0 Z " fill="#060606" transform="translate(226,136)"/>
<path d="M0 0 C19.8 0 39.6 0 60 0 C60 23.76 60 47.52 60 72 C52.15359751 70.87908536 52.15359751 70.87908536 48.1875 69.80859375 C46.91519531 69.47504883 46.91519531 69.47504883 45.6171875 69.13476562 C43.8714203 68.66966198 42.12662212 68.20090584 40.3828125 67.72851562 C31.1101197 65.31169676 24.43038922 66.18445881 15.375 69 C13.53054794 69.56870605 11.68423587 70.13142169 9.8359375 70.6875 C9.02688965 70.93886719 8.2178418 71.19023437 7.38427734 71.44921875 C5 72 5 72 0 72 C0 48.24 0 24.48 0 0 Z " fill="#FE5376" transform="translate(129,420)"/>
<path d="M0 0 C0.99 0.66 1.98 1.32 3 2 C1.44298069 6.67105792 -1.08447373 10.08705685 -4 14 C-7.22543513 13.47976853 -10.08710815 12.59375327 -13.125 11.4375 C-21.75666392 8.53164963 -30.71239137 9.33194027 -39 13 C-47.01973029 17.71748841 -53.12201794 24.34313355 -56.3046875 33.12890625 C-58.53877531 42.35393177 -57.88890545 51.79163886 -53 60 C-47.27426377 68.46473024 -39.57724268 72.80758577 -30 76 C-20.80177795 77.13718238 -13.56155676 75.42996064 -6 70 C-0.51022879 64.31180333 1.29787713 57.43083789 4 50 C-4.91 50 -13.82 50 -23 50 C-23 45.38 -23 40.76 -23 36 C-9.14 36 4.72 36 19 36 C19 53.37370849 18.05091629 67.10781759 6.2265625 79.921875 C-4.12321118 89.80696496 -15.93939335 91.55969168 -29.609375 91.3359375 C-41.02519603 90.85598116 -50.64884398 85.62156985 -59 78 C-69.22510691 66.79607943 -73.6739052 53.0498271 -73.33984375 38.05859375 C-72.73417325 27.54103753 -68.02265441 18.61279343 -61 11 C-60.42765625 10.31421875 -59.8553125 9.6284375 -59.265625 8.921875 C-44.09393759 -8.06522799 -19.48245042 -10.01507492 0 0 Z " fill="#030303" transform="translate(389,142)"/>
<path d="M0 0 C13.53 0 27.06 0 41 0 C41 4.62 41 9.24 41 14 C32.09 14 23.18 14 14 14 C14 22.91 14 31.82 14 41 C22.25 41 30.5 41 39 41 C39 45.62 39 50.24 39 55 C30.75 55 22.5 55 14 55 C14 63.91 14 72.82 14 82 C22.91 82 31.82 82 41 82 C41 86.62 41 91.24 41 96 C27.47 96 13.94 96 0 96 C0 64.32 0 32.64 0 0 Z " fill="#000000" transform="translate(164,137)"/>
<path d="M0 0 C4.29 0 8.58 0 13 0 C13 45.54 13 91.08 13 138 C8.71 138 4.42 138 0 138 C-0.33 112.26 -0.66 86.52 -1 60 C-14.86 60 -28.72 60 -43 60 C-43 59.67 -43 59.34 -43 59 C-28.81 59 -14.62 59 0 59 C0 39.53 0 20.06 0 0 Z " fill="#BECDD7" transform="translate(409,118)"/>
<path d="M0 0 C19.8 0 39.6 0 60 0 C60 23.76 60 47.52 60 72 C53 71 53 71 47 69 C47 46.56 47 24.12 47 1 C31.49 1 15.98 1 0 1 C0 0.67 0 0.34 0 0 Z " fill="#EF1041" transform="translate(129,420)"/>
<path d="M0 0 C0.1164248 7.78055619 0.20498161 15.56090406 0.25906086 23.3421154 C0.28503134 26.95625701 0.32019409 30.56979782 0.37719727 34.18359375 C0.431973 37.67849662 0.46151462 41.17282578 0.47438622 44.66812515 C0.48796899 46.63448279 0.5269284 48.60061318 0.56648254 50.56661987 C0.56917876 59.2802742 -0.69411312 66.38740508 -6.80522156 72.93380737 C-11.51745195 77.28851257 -15.5634666 79.10691916 -22 79 C-21.38511719 78.02160156 -21.38511719 78.02160156 -20.7578125 77.0234375 C-20.21898437 76.14945312 -19.68015625 75.27546875 -19.125 74.375 C-18.59132813 73.51648438 -18.05765625 72.65796875 -17.5078125 71.7734375 C-14.89449771 66.96656315 -13.75525367 62.63702054 -13.68115234 57.17822266 C-13.66128265 56.05751373 -13.64141296 54.93680481 -13.62094116 53.78213501 C-13.60938995 52.58817108 -13.59783875 51.39420715 -13.5859375 50.1640625 C-13.55688828 48.31232925 -13.55688828 48.31232925 -13.5272522 46.42318726 C-13.46759903 42.49052788 -13.42112737 38.557839 -13.375 34.625 C-13.33787457 31.95439547 -13.29775475 29.28384636 -13.2578125 26.61328125 C-13.16190904 20.07562886 -13.07681971 13.53790298 -13 7 C-13.99 6.67 -14.98 6.34 -16 6 C-15.16855469 5.73445313 -14.33710938 5.46890625 -13.48046875 5.1953125 C-12.39378906 4.84210938 -11.30710937 4.48890625 -10.1875 4.125 C-9.10855469 3.77695312 -8.02960938 3.42890625 -6.91796875 3.0703125 C-4.75040057 2.27524733 -2.15021615 0 0 0 Z " fill="#BDCDD7" transform="translate(453,376)"/>
<path d="M0 0 C5.28 0 10.56 0 16 0 C16 4.95 16 9.9 16 15 C10.72 15 5.44 15 0 15 C0 10.05 0 5.1 0 0 Z " fill="#151515" transform="translate(390,406)"/>
</svg>
